# MagicaVoxel @ Ephtracy

# group
g 자석

# material
mtllib 자석.mtl
usemtl palette

# normals
vn -1 0 0
vn 1 0 0
vn 0 0 1
vn 0 0 -1
vn 0 -1 0
vn 0 1 0

# texcoords
vt 0.0253906 0.5
vt 0.751953 0.5

# verts
v -11 2 5
v -11 2 -4
v -11 25 5
v -11 25 -4
v -9 0 5
v -9 0 -4
v -9 2 5
v -9 2 -4
v 5 7 5
v 5 7 -4
v 5 25 5
v 5 25 -4
v -3 7 5
v -3 7 -4
v -3 25 5
v -3 25 -4
v 11 0 5
v 11 0 -4
v 11 2 5
v 11 2 -4
v 13 2 5
v 13 2 -4
v 13 25 5
v 13 25 -4
v -11 2 5
v -11 25 5
v -9 0 5
v -9 2 5
v -3 7 5
v -3 25 5
v 1 0 5
v 1 7 5
v 5 7 5
v 5 25 5
v 11 0 5
v 11 2 5
v 13 2 5
v 13 25 5
v -11 2 -4
v -11 25 -4
v -9 0 -4
v -9 2 -4
v -3 7 -4
v -3 25 -4
v 1 0 -4
v 1 7 -4
v 5 7 -4
v 5 25 -4
v 11 0 -4
v 11 2 -4
v 13 2 -4
v 13 25 -4
v -9 0 5
v 1 0 5
v 11 0 5
v -9 0 -4
v 1 0 -4
v 11 0 -4
v -11 2 5
v -9 2 5
v 11 2 5
v 13 2 5
v -11 2 -4
v -9 2 -4
v 11 2 -4
v 13 2 -4
v -3 7 5
v 1 7 5
v 5 7 5
v -3 7 -4
v 1 7 -4
v 5 7 -4
v -11 25 5
v -3 25 5
v 5 25 5
v 13 25 5
v -11 25 -4
v -3 25 -4
v 5 25 -4
v 13 25 -4

# faces
f 3/2/1 2/2/1 1/2/1
f 4/2/1 2/2/1 3/2/1
f 7/2/1 6/2/1 5/2/1
f 8/2/1 6/2/1 7/2/1
f 11/1/1 10/1/1 9/1/1
f 12/1/1 10/1/1 11/1/1
f 13/2/2 14/2/2 15/2/2
f 15/2/2 14/2/2 16/2/2
f 17/1/2 18/1/2 19/1/2
f 19/1/2 18/1/2 20/1/2
f 21/1/2 22/1/2 23/1/2
f 23/1/2 22/1/2 24/1/2
f 28/2/3 26/2/3 25/2/3
f 29/2/3 26/2/3 28/2/3
f 29/2/3 28/2/3 27/2/3
f 30/2/3 26/2/3 29/2/3
f 31/2/3 29/2/3 27/2/3
f 32/2/3 29/2/3 31/2/3
f 33/1/3 32/1/3 31/1/3
f 35/1/3 33/1/3 31/1/3
f 35/1/3 34/1/3 33/1/3
f 36/1/3 34/1/3 35/1/3
f 37/1/3 34/1/3 36/1/3
f 38/1/3 34/1/3 37/1/3
f 39/2/4 40/2/4 42/2/4
f 42/2/4 40/2/4 43/2/4
f 41/2/4 42/2/4 43/2/4
f 43/2/4 40/2/4 44/2/4
f 41/2/4 43/2/4 45/2/4
f 45/2/4 43/2/4 46/2/4
f 45/1/4 46/1/4 47/1/4
f 45/1/4 47/1/4 49/1/4
f 47/1/4 48/1/4 49/1/4
f 49/1/4 48/1/4 50/1/4
f 50/1/4 48/1/4 51/1/4
f 51/1/4 48/1/4 52/1/4
f 56/2/5 54/2/5 53/2/5
f 57/1/5 55/1/5 54/1/5
f 57/2/5 54/2/5 56/2/5
f 58/1/5 55/1/5 57/1/5
f 63/2/5 60/2/5 59/2/5
f 64/2/5 60/2/5 63/2/5
f 65/1/5 62/1/5 61/1/5
f 66/1/5 62/1/5 65/1/5
f 67/2/6 68/2/6 70/2/6
f 68/1/6 69/1/6 71/1/6
f 70/2/6 68/2/6 71/2/6
f 71/1/6 69/1/6 72/1/6
f 73/2/6 74/2/6 77/2/6
f 77/2/6 74/2/6 78/2/6
f 75/1/6 76/1/6 79/1/6
f 79/1/6 76/1/6 80/1/6
