# MagicaVoxel @ Ephtracy

# group
g 사각형

# material
mtllib 사각형.mtl
usemtl palette

# normals
vn -1 0 0
vn 1 0 0
vn 0 0 1
vn 0 0 -1
vn 0 -1 0
vn 0 1 0

# texcoords
vt 0.564453 0.5
vt 0.986328 0.5

# verts
v -20 0 20
v -20 0 -20
v -20 7 14
v -20 7 7
v -20 10 14
v -20 10 7
v -20 15 -5
v -20 15 -9
v -20 18 -5
v -20 18 -9
v -20 25 -11
v -20 25 -14
v -20 26 12
v -20 26 4
v -20 30 -11
v -20 30 -14
v -20 32 12
v -20 32 4
v -20 40 20
v -20 40 -20
v 20 0 20
v 20 0 -20
v 20 4 -2
v 20 4 -13
v 20 7 -2
v 20 7 -13
v 20 21 9
v 20 21 5
v 20 28 -8
v 20 28 -14
v 20 31 9
v 20 31 5
v 20 34 -8
v 20 34 -14
v 20 40 20
v 20 40 -20
v -20 0 20
v -20 40 20
v -14 6 20
v -14 9 20
v -14 24 20
v -14 32 20
v -7 6 20
v -7 9 20
v -6 24 20
v -6 32 20
v 7 12 20
v 7 17 20
v 10 37 20
v 10 40 20
v 12 12 20
v 12 17 20
v 14 37 20
v 14 40 20
v 20 0 20
v 20 40 20
v -20 0 -20
v -20 40 -20
v -17 26 -20
v -17 34 -20
v -15 26 -20
v -15 34 -20
v -4 22 -20
v -4 26 -20
v 1 6 -20
v 1 10 -20
v 1 22 -20
v 1 26 -20
v 10 6 -20
v 10 10 -20
v 12 23 -20
v 12 33 -20
v 15 23 -20
v 15 33 -20
v 20 0 -20
v 20 40 -20
v -20 0 20
v 20 0 20
v 5 0 10
v 12 0 10
v 5 0 -6
v 12 0 -6
v -11 0 -9
v -6 0 -9
v -11 0 -12
v -6 0 -12
v -20 0 -20
v 20 0 -20
v -20 40 20
v 10 40 20
v 14 40 20
v 20 40 20
v 10 40 5
v 14 40 5
v -14 40 1
v -10 40 1
v -14 40 -5
v -10 40 -5
v 2 40 -8
v 6 40 -8
v 2 40 -14
v 6 40 -14
v -20 40 -20
v 20 40 -20

# faces
f 3/2/1 2/2/1 1/2/1
f 4/2/1 2/2/1 3/2/1
f 5/2/1 3/2/1 1/2/1
f 5/1/1 4/1/1 3/1/1
f 6/2/1 2/2/1 4/2/1
f 6/1/1 4/1/1 5/1/1
f 7/2/1 6/2/1 5/2/1
f 7/2/1 2/2/1 6/2/1
f 8/2/1 2/2/1 7/2/1
f 9/2/1 7/2/1 5/2/1
f 9/1/1 8/1/1 7/1/1
f 10/2/1 2/2/1 8/2/1
f 10/1/1 8/1/1 9/1/1
f 11/2/1 10/2/1 9/2/1
f 11/2/1 2/2/1 10/2/1
f 12/2/1 2/2/1 11/2/1
f 13/2/1 9/2/1 5/2/1
f 13/2/1 11/2/1 9/2/1
f 14/2/1 11/2/1 13/2/1
f 15/1/1 12/1/1 11/1/1
f 15/2/1 11/2/1 14/2/1
f 16/2/1 2/2/1 12/2/1
f 16/1/1 12/1/1 15/1/1
f 17/1/1 14/1/1 13/1/1
f 17/2/1 13/2/1 5/2/1
f 18/2/1 15/2/1 14/2/1
f 18/1/1 14/1/1 17/1/1
f 18/2/1 16/2/1 15/2/1
f 19/2/1 5/2/1 1/2/1
f 19/2/1 17/2/1 5/2/1
f 19/2/1 18/2/1 17/2/1
f 20/2/1 16/2/1 18/2/1
f 20/2/1 18/2/1 19/2/1
f 20/2/1 2/2/1 16/2/1
f 21/2/2 22/2/2 23/2/2
f 23/2/2 22/2/2 24/2/2
f 21/2/2 23/2/2 25/2/2
f 23/1/2 24/1/2 25/1/2
f 24/2/2 22/2/2 26/2/2
f 25/1/2 24/1/2 26/1/2
f 21/2/2 25/2/2 27/2/2
f 25/2/2 26/2/2 27/2/2
f 27/2/2 26/2/2 28/2/2
f 28/2/2 26/2/2 29/2/2
f 26/2/2 22/2/2 30/2/2
f 29/2/2 26/2/2 30/2/2
f 21/2/2 27/2/2 31/2/2
f 27/1/2 28/1/2 31/1/2
f 28/2/2 29/2/2 32/2/2
f 31/1/2 28/1/2 32/1/2
f 29/1/2 30/1/2 33/1/2
f 32/2/2 29/2/2 33/2/2
f 31/2/2 32/2/2 33/2/2
f 30/2/2 22/2/2 34/2/2
f 33/1/2 30/1/2 34/1/2
f 21/2/2 31/2/2 35/2/2
f 31/2/2 33/2/2 35/2/2
f 33/2/2 34/2/2 35/2/2
f 34/2/2 22/2/2 36/2/2
f 35/2/2 34/2/2 36/2/2
f 39/2/3 38/2/3 37/2/3
f 40/2/3 38/2/3 39/2/3
f 41/2/3 38/2/3 40/2/3
f 42/2/3 38/2/3 41/2/3
f 43/2/3 39/2/3 37/2/3
f 43/1/3 40/1/3 39/1/3
f 44/2/3 41/2/3 40/2/3
f 44/1/3 40/1/3 43/1/3
f 45/1/3 42/1/3 41/1/3
f 45/2/3 41/2/3 44/2/3
f 45/2/3 44/2/3 43/2/3
f 46/2/3 38/2/3 42/2/3
f 46/1/3 42/1/3 45/1/3
f 47/2/3 45/2/3 43/2/3
f 47/2/3 46/2/3 45/2/3
f 48/2/3 46/2/3 47/2/3
f 49/2/3 38/2/3 46/2/3
f 49/2/3 46/2/3 48/2/3
f 50/2/3 38/2/3 49/2/3
f 51/1/3 48/1/3 47/1/3
f 51/2/3 47/2/3 43/2/3
f 52/2/3 49/2/3 48/2/3
f 52/1/3 48/1/3 51/1/3
f 53/1/3 50/1/3 49/1/3
f 53/2/3 49/2/3 52/2/3
f 53/2/3 52/2/3 51/2/3
f 54/1/3 50/1/3 53/1/3
f 55/2/3 43/2/3 37/2/3
f 55/2/3 51/2/3 43/2/3
f 55/2/3 54/2/3 53/2/3
f 55/2/3 53/2/3 51/2/3
f 56/2/3 54/2/3 55/2/3
f 57/2/4 58/2/4 59/2/4
f 59/2/4 58/2/4 60/2/4
f 57/2/4 59/2/4 61/2/4
f 59/1/4 60/1/4 61/1/4
f 60/2/4 58/2/4 62/2/4
f 61/1/4 60/1/4 62/1/4
f 57/2/4 61/2/4 63/2/4
f 61/2/4 62/2/4 63/2/4
f 63/2/4 62/2/4 64/2/4
f 57/2/4 63/2/4 65/2/4
f 65/2/4 63/2/4 66/2/4
f 63/1/4 64/1/4 67/1/4
f 66/2/4 63/2/4 67/2/4
f 64/2/4 62/2/4 68/2/4
f 67/1/4 64/1/4 68/1/4
f 65/1/4 66/1/4 69/1/4
f 57/2/4 65/2/4 69/2/4
f 66/2/4 67/2/4 70/2/4
f 69/1/4 66/1/4 70/1/4
f 67/2/4 68/2/4 70/2/4
f 69/2/4 70/2/4 71/2/4
f 70/2/4 68/2/4 71/2/4
f 68/2/4 62/2/4 72/2/4
f 71/2/4 68/2/4 72/2/4
f 69/2/4 71/2/4 73/2/4
f 71/1/4 72/1/4 73/1/4
f 72/2/4 62/2/4 74/2/4
f 73/1/4 72/1/4 74/1/4
f 57/2/4 69/2/4 75/2/4
f 69/2/4 73/2/4 75/2/4
f 73/2/4 74/2/4 75/2/4
f 62/2/4 58/2/4 76/2/4
f 75/2/4 74/2/4 76/2/4
f 74/2/4 62/2/4 76/2/4
f 79/2/5 78/2/5 77/2/5
f 80/2/5 78/2/5 79/2/5
f 81/2/5 79/2/5 77/2/5
f 81/1/5 80/1/5 79/1/5
f 82/2/5 78/2/5 80/2/5
f 82/1/5 80/1/5 81/1/5
f 83/2/5 81/2/5 77/2/5
f 83/2/5 82/2/5 81/2/5
f 84/2/5 82/2/5 83/2/5
f 85/2/5 83/2/5 77/2/5
f 85/1/5 84/1/5 83/1/5
f 86/2/5 82/2/5 84/2/5
f 86/1/5 84/1/5 85/1/5
f 87/2/5 85/2/5 77/2/5
f 87/2/5 86/2/5 85/2/5
f 88/2/5 78/2/5 82/2/5
f 88/2/5 86/2/5 87/2/5
f 88/2/5 82/2/5 86/2/5
f 89/2/6 90/2/6 93/2/6
f 90/1/6 91/1/6 93/1/6
f 91/2/6 92/2/6 94/2/6
f 93/1/6 91/1/6 94/1/6
f 89/2/6 93/2/6 95/2/6
f 93/2/6 94/2/6 95/2/6
f 95/2/6 94/2/6 96/2/6
f 89/2/6 95/2/6 97/2/6
f 95/1/6 96/1/6 97/1/6
f 96/2/6 94/2/6 98/2/6
f 97/1/6 96/1/6 98/1/6
f 97/2/6 98/2/6 99/2/6
f 98/2/6 94/2/6 99/2/6
f 99/2/6 94/2/6 100/2/6
f 97/2/6 99/2/6 101/2/6
f 99/1/6 100/1/6 101/1/6
f 100/2/6 94/2/6 102/2/6
f 101/1/6 100/1/6 102/1/6
f 89/2/6 97/2/6 103/2/6
f 97/2/6 101/2/6 103/2/6
f 101/2/6 102/2/6 103/2/6
f 94/2/6 92/2/6 104/2/6
f 103/2/6 102/2/6 104/2/6
f 102/2/6 94/2/6 104/2/6
