# MagicaVoxel @ Ephtracy

# group
g 긴 거

# material
mtllib 긴 거.mtl
usemtl palette

# normals
vn -1 0 0
vn 1 0 0
vn 0 0 1
vn 0 0 -1
vn 0 -1 0
vn 0 1 0

# texcoords
vt 0.0683594 0.5
vt 0.990234 0.5

# verts
v -12 0 11
v -12 0 -13
v -12 5 11
v -12 5 -13
v -11 5 -4
v -11 5 -9
v -11 7 -4
v -11 7 -9
v -11 12 -1
v -11 12 -2
v -11 15 -1
v -11 15 -2
v -10 5 8
v -10 5 -4
v -10 5 -9
v -10 5 -13
v -10 7 -4
v -10 7 -9
v -10 12 -1
v -10 12 -2
v -10 15 8
v -10 15 -1
v -10 15 -2
v -10 15 -3
v -10 15 -13
v -10 16 -2
v -10 16 -3
v -9 5 9
v -9 5 8
v -9 15 8
v -9 15 5
v -9 16 9
v -9 16 5
v -7 0 -13
v -7 0 -14
v -7 2 -13
v -7 2 -14
v -7 18 -5
v -7 18 -7
v -7 26 -5
v -7 26 -7
v -6 15 5
v -6 15 -2
v -6 15 -3
v -6 15 -10
v -6 16 5
v -6 16 -2
v -6 16 -3
v -6 18 -5
v -6 18 -7
v -6 25 5
v -6 25 -5
v -6 25 -7
v -6 25 -10
v -5 25 3
v -5 25 -5
v -5 25 -7
v -5 25 -9
v -5 26 -5
v -5 26 -7
v -5 32 3
v -5 32 -9
v -4 34 -1
v -4 34 -4
v -4 36 -1
v -4 36 -4
v -3 9 -13
v -3 9 -14
v -3 15 -10
v -3 15 -13
v -3 16 -10
v -3 16 -14
v -3 25 4
v -3 25 3
v -3 28 4
v -3 28 3
v -3 32 1
v -3 32 -9
v -3 33 -8
v -3 33 -9
v -3 34 -1
v -3 34 -4
v -3 35 1
v -3 35 -1
v -3 35 -4
v -3 35 -8
v -2 25 -9
v -2 25 -10
v -2 29 -9
v -2 29 -10
v -1 35 -0
v -1 35 -1
v -1 35 -4
v -1 35 -7
v -1 36 -1
v -1 36 -4
v -1 40 -0
v -1 40 -7
v 2 32 2
v 2 32 1
v 2 33 2
v 2 33 1
v 3 3 12
v 3 3 11
v 3 5 11
v 3 5 8
v 3 6 12
v 3 6 8
v 3 38 1
v 3 38 -0
v 3 40 1
v 3 40 -0
v 4 15 6
v 4 15 5
v 4 18 6
v 4 18 5
v -6 5 9
v -6 5 8
v -6 15 8
v -6 15 5
v -6 16 9
v -6 16 5
v -1 0 -13
v -1 0 -14
v -1 2 -13
v -1 2 -14
v 1 25 4
v 1 25 3
v 1 25 -9
v 1 25 -10
v 1 28 4
v 1 28 3
v 1 29 -9
v 1 29 -10
v 3 32 2
v 3 32 1
v 3 33 2
v 3 33 1
v 4 34 -7
v 4 34 -8
v 4 35 -7
v 4 35 -8
v 5 9 -13
v 5 9 -14
v 5 15 -10
v 5 15 -13
v 5 16 -10
v 5 16 -14
v 5 32 1
v 5 32 -4
v 5 32 -7
v 5 32 -9
v 5 33 -4
v 5 33 -5
v 5 33 -8
v 5 33 -9
v 5 34 -7
v 5 34 -8
v 5 35 1
v 5 35 -0
v 5 37 -5
v 5 37 -7
v 5 38 1
v 5 38 -0
v 5 40 1
v 5 40 -0
v 5 40 -7
v 6 33 -5
v 6 33 -7
v 6 37 -5
v 6 37 -7
v 7 3 12
v 7 3 11
v 7 5 11
v 7 5 8
v 7 6 12
v 7 6 8
v 7 15 6
v 7 15 5
v 7 18 6
v 7 18 5
v 7 25 3
v 7 25 -9
v 7 30 -4
v 7 30 -7
v 7 32 3
v 7 32 -4
v 7 32 -7
v 7 32 -9
v 8 30 -4
v 8 30 -7
v 8 33 -4
v 8 33 -7
v 9 15 5
v 9 15 -0
v 9 15 -2
v 9 15 -10
v 9 21 -0
v 9 21 -2
v 9 25 5
v 9 25 -10
v 10 5 8
v 10 5 -2
v 10 5 -10
v 10 5 -13
v 10 6 -2
v 10 6 -10
v 10 15 8
v 10 15 -0
v 10 15 -2
v 10 15 -13
v 10 21 -0
v 10 21 -2
v 13 0 11
v 13 0 -13
v 13 5 11
v 13 5 -2
v 13 5 -10
v 13 5 -13
v 13 6 -2
v 13 6 -10
v 3 3 12
v 3 6 12
v 7 3 12
v 7 6 12
v -12 0 11
v -12 5 11
v 3 3 11
v 3 5 11
v 7 3 11
v 7 5 11
v 13 0 11
v 13 5 11
v -9 5 9
v -9 16 9
v -6 5 9
v -6 16 9
v -10 5 8
v -10 15 8
v -9 5 8
v -9 15 8
v -6 5 8
v -6 15 8
v 3 5 8
v 3 6 8
v 7 5 8
v 7 6 8
v 10 5 8
v 10 15 8
v 4 15 6
v 4 18 6
v 7 15 6
v 7 18 6
v -6 15 5
v -6 16 5
v -6 25 5
v 4 15 5
v 4 18 5
v 7 15 5
v 7 18 5
v 9 15 5
v 9 25 5
v -3 25 4
v -3 28 4
v 1 25 4
v 1 28 4
v -5 25 3
v -5 32 3
v -3 25 3
v -3 28 3
v 1 25 3
v 1 28 3
v 7 25 3
v 7 32 3
v 2 32 2
v 2 33 2
v 3 32 2
v 3 33 2
v -3 32 1
v -3 35 1
v 2 32 1
v 2 33 1
v 3 32 1
v 3 33 1
v 3 38 1
v 3 40 1
v 5 32 1
v 5 35 1
v 5 38 1
v 5 40 1
v -1 35 -0
v -1 40 -0
v 3 38 -0
v 3 40 -0
v 5 35 -0
v 5 38 -0
v 9 15 -0
v 9 21 -0
v 10 15 -0
v 10 21 -0
v -11 12 -1
v -11 15 -1
v -10 12 -1
v -10 15 -1
v -4 34 -1
v -4 36 -1
v -3 34 -1
v -3 35 -1
v -1 35 -1
v -1 36 -1
v -10 15 -2
v -10 16 -2
v -6 15 -2
v -6 16 -2
v 10 5 -2
v 10 6 -2
v 13 5 -2
v 13 6 -2
v -11 5 -4
v -11 7 -4
v -10 5 -4
v -10 7 -4
v 5 32 -4
v 5 33 -4
v 7 30 -4
v 7 32 -4
v 8 30 -4
v 8 33 -4
v -7 18 -5
v -7 26 -5
v -6 18 -5
v -6 25 -5
v -5 25 -5
v -5 26 -5
v 5 33 -5
v 5 37 -5
v 6 33 -5
v 6 37 -5
v -9 15 5
v -9 16 5
v -6 15 5
v -6 16 5
v -11 12 -2
v -11 15 -2
v -10 12 -2
v -10 15 -2
v 9 15 -2
v 9 21 -2
v 10 15 -2
v 10 21 -2
v -10 15 -3
v -10 16 -3
v -6 15 -3
v -6 16 -3
v -4 34 -4
v -4 36 -4
v -3 34 -4
v -3 35 -4
v -1 35 -4
v -1 36 -4
v -7 18 -7
v -7 26 -7
v -6 18 -7
v -6 25 -7
v -5 25 -7
v -5 26 -7
v -1 35 -7
v -1 40 -7
v 4 34 -7
v 4 35 -7
v 5 32 -7
v 5 34 -7
v 5 37 -7
v 5 40 -7
v 6 33 -7
v 6 37 -7
v 7 30 -7
v 7 32 -7
v 8 30 -7
v 8 33 -7
v -3 33 -8
v -3 35 -8
v 4 34 -8
v 4 35 -8
v 5 33 -8
v 5 34 -8
v -11 5 -9
v -11 7 -9
v -10 5 -9
v -10 7 -9
v -5 25 -9
v -5 32 -9
v -3 32 -9
v -3 33 -9
v -2 25 -9
v -2 29 -9
v 1 25 -9
v 1 29 -9
v 5 32 -9
v 5 33 -9
v 7 25 -9
v 7 32 -9
v -6 15 -10
v -6 25 -10
v -3 15 -10
v -3 16 -10
v -2 25 -10
v -2 29 -10
v 1 25 -10
v 1 29 -10
v 5 15 -10
v 5 16 -10
v 9 15 -10
v 9 25 -10
v 10 5 -10
v 10 6 -10
v 13 5 -10
v 13 6 -10
v -12 0 -13
v -12 5 -13
v -10 5 -13
v -10 15 -13
v -7 0 -13
v -7 2 -13
v -3 9 -13
v -3 15 -13
v -1 0 -13
v -1 2 -13
v 5 9 -13
v 5 15 -13
v 10 5 -13
v 10 15 -13
v 13 0 -13
v 13 5 -13
v -7 0 -14
v -7 2 -14
v -3 9 -14
v -3 16 -14
v -1 0 -14
v -1 2 -14
v 5 9 -14
v 5 16 -14
v -12 0 11
v 13 0 11
v -12 0 -13
v -7 0 -13
v -1 0 -13
v 13 0 -13
v -7 0 -14
v -1 0 -14
v 3 3 12
v 7 3 12
v 3 3 11
v 7 3 11
v -3 9 -13
v 5 9 -13
v -3 9 -14
v 5 9 -14
v -11 12 -1
v -10 12 -1
v -11 12 -2
v -10 12 -2
v -7 18 -5
v -6 18 -5
v -7 18 -7
v -6 18 -7
v 7 30 -4
v 8 30 -4
v 7 30 -7
v 8 30 -7
v -4 34 -1
v -3 34 -1
v -4 34 -4
v -3 34 -4
v 3 38 1
v 5 38 1
v 3 38 -0
v 5 38 -0
v -7 2 -13
v -1 2 -13
v -7 2 -14
v -1 2 -14
v -12 5 11
v 3 5 11
v 7 5 11
v 13 5 11
v -9 5 9
v -6 5 9
v -10 5 8
v -9 5 8
v -6 5 8
v 3 5 8
v 7 5 8
v 10 5 8
v 10 5 -2
v 13 5 -2
v -11 5 -4
v -10 5 -4
v -11 5 -9
v -10 5 -9
v 10 5 -10
v 13 5 -10
v -12 5 -13
v -10 5 -13
v 10 5 -13
v 13 5 -13
v 3 6 12
v 7 6 12
v 3 6 8
v 7 6 8
v 10 6 -2
v 13 6 -2
v 10 6 -10
v 13 6 -10
v -11 7 -4
v -10 7 -4
v -11 7 -9
v -10 7 -9
v -10 15 8
v -9 15 8
v -6 15 8
v 10 15 8
v 4 15 6
v 7 15 6
v -9 15 5
v -6 15 5
v 4 15 5
v 7 15 5
v 9 15 5
v 9 15 -0
v 10 15 -0
v -11 15 -1
v -10 15 -1
v -11 15 -2
v -10 15 -2
v -6 15 -2
v 9 15 -2
v 10 15 -2
v -10 15 -3
v -6 15 -3
v -6 15 -10
v -3 15 -10
v 5 15 -10
v 9 15 -10
v -10 15 -13
v -3 15 -13
v 5 15 -13
v 10 15 -13
v -9 16 9
v -6 16 9
v -9 16 5
v -6 16 5
v -10 16 -2
v -6 16 -2
v -10 16 -3
v -6 16 -3
v -3 16 -10
v 5 16 -10
v -3 16 -14
v 5 16 -14
v 4 18 6
v 7 18 6
v 4 18 5
v 7 18 5
v 9 21 -0
v 10 21 -0
v 9 21 -2
v 10 21 -2
v -6 25 5
v 9 25 5
v -3 25 4
v 1 25 4
v -5 25 3
v -3 25 3
v 1 25 3
v 7 25 3
v -6 25 -5
v -5 25 -5
v -6 25 -7
v -5 25 -7
v -5 25 -9
v -2 25 -9
v 1 25 -9
v 7 25 -9
v -6 25 -10
v -2 25 -10
v 1 25 -10
v 9 25 -10
v -7 26 -5
v -5 26 -5
v -7 26 -7
v -5 26 -7
v -3 28 4
v 1 28 4
v -3 28 3
v 1 28 3
v -2 29 -9
v 1 29 -9
v -2 29 -10
v 1 29 -10
v -5 32 3
v 7 32 3
v 2 32 2
v 3 32 2
v -3 32 1
v 2 32 1
v 3 32 1
v 5 32 1
v 5 32 -4
v 7 32 -4
v 5 32 -7
v 7 32 -7
v -5 32 -9
v -3 32 -9
v 5 32 -9
v 7 32 -9
v 2 33 2
v 3 33 2
v 2 33 1
v 3 33 1
v 5 33 -4
v 8 33 -4
v 5 33 -5
v 6 33 -5
v 6 33 -7
v 8 33 -7
v -3 33 -8
v 5 33 -8
v -3 33 -9
v 5 33 -9
v 4 34 -7
v 5 34 -7
v 4 34 -8
v 5 34 -8
v -3 35 1
v 5 35 1
v -1 35 -0
v 5 35 -0
v -3 35 -1
v -1 35 -1
v -3 35 -4
v -1 35 -4
v -1 35 -7
v 4 35 -7
v -3 35 -8
v 4 35 -8
v -4 36 -1
v -1 36 -1
v -4 36 -4
v -1 36 -4
v 5 37 -5
v 6 37 -5
v 5 37 -7
v 6 37 -7
v 3 40 1
v 5 40 1
v -1 40 -0
v 3 40 -0
v 5 40 -0
v -1 40 -7
v 5 40 -7

# faces
f 3/2/1 2/2/1 1/2/1
f 4/2/1 2/2/1 3/2/1
f 7/1/1 6/1/1 5/1/1
f 8/1/1 6/1/1 7/1/1
f 11/1/1 10/1/1 9/1/1
f 12/1/1 10/1/1 11/1/1
f 17/2/1 14/2/1 13/2/1
f 18/2/1 16/2/1 15/2/1
f 19/2/1 17/2/1 13/2/1
f 19/2/1 18/2/1 17/2/1
f 20/2/1 18/2/1 19/2/1
f 21/2/1 19/2/1 13/2/1
f 22/2/1 19/2/1 21/2/1
f 23/2/1 18/2/1 20/2/1
f 24/2/1 18/2/1 23/2/1
f 25/2/1 16/2/1 18/2/1
f 25/2/1 18/2/1 24/2/1
f 26/1/1 24/1/1 23/1/1
f 27/1/1 24/1/1 26/1/1
f 30/1/1 29/1/1 28/1/1
f 32/1/1 30/1/1 28/1/1
f 32/1/1 31/1/1 30/1/1
f 33/1/1 31/1/1 32/1/1
f 36/1/1 35/1/1 34/1/1
f 37/1/1 35/1/1 36/1/1
f 40/1/1 39/1/1 38/1/1
f 41/1/1 39/1/1 40/1/1
f 46/2/1 43/2/1 42/2/1
f 47/2/1 43/2/1 46/2/1
f 48/2/1 45/2/1 44/2/1
f 49/2/1 47/2/1 46/2/1
f 49/2/1 48/2/1 47/2/1
f 49/2/1 45/2/1 48/2/1
f 50/2/1 45/2/1 49/2/1
f 51/2/1 49/2/1 46/2/1
f 52/2/1 49/2/1 51/2/1
f 53/2/1 45/2/1 50/2/1
f 54/2/1 45/2/1 53/2/1
f 59/2/1 56/2/1 55/2/1
f 60/2/1 58/2/1 57/2/1
f 61/2/1 59/2/1 55/2/1
f 61/2/1 60/2/1 59/2/1
f 62/2/1 58/2/1 60/2/1
f 62/2/1 60/2/1 61/2/1
f 65/1/1 64/1/1 63/1/1
f 66/1/1 64/1/1 65/1/1
f 70/1/1 68/1/1 67/1/1
f 71/1/1 70/1/1 69/1/1
f 72/1/1 68/1/1 70/1/1
f 72/1/1 70/1/1 71/1/1
f 75/1/1 74/1/1 73/1/1
f 76/1/1 74/1/1 75/1/1
f 79/2/1 78/2/1 77/2/1
f 80/2/1 78/2/1 79/2/1
f 81/2/1 79/2/1 77/2/1
f 82/2/1 79/2/1 81/2/1
f 83/2/1 81/2/1 77/2/1
f 84/2/1 81/2/1 83/2/1
f 85/2/1 79/2/1 82/2/1
f 86/2/1 79/2/1 85/2/1
f 89/1/1 88/1/1 87/1/1
f 90/1/1 88/1/1 89/1/1
f 95/2/1 92/2/1 91/2/1
f 96/2/1 94/2/1 93/2/1
f 97/2/1 95/2/1 91/2/1
f 97/2/1 96/2/1 95/2/1
f 98/2/1 94/2/1 96/2/1
f 98/2/1 96/2/1 97/2/1
f 101/1/1 100/1/1 99/1/1
f 102/1/1 100/1/1 101/1/1
f 105/1/1 104/1/1 103/1/1
f 107/1/1 105/1/1 103/1/1
f 107/1/1 106/1/1 105/1/1
f 108/1/1 106/1/1 107/1/1
f 111/1/1 110/1/1 109/1/1
f 112/1/1 110/1/1 111/1/1
f 115/1/1 114/1/1 113/1/1
f 116/1/1 114/1/1 115/1/1
f 117/1/2 118/1/2 119/1/2
f 117/1/2 119/1/2 121/1/2
f 119/1/2 120/1/2 121/1/2
f 121/1/2 120/1/2 122/1/2
f 123/1/2 124/1/2 125/1/2
f 125/1/2 124/1/2 126/1/2
f 127/1/2 128/1/2 131/1/2
f 131/1/2 128/1/2 132/1/2
f 129/1/2 130/1/2 133/1/2
f 133/1/2 130/1/2 134/1/2
f 135/1/2 136/1/2 137/1/2
f 137/1/2 136/1/2 138/1/2
f 139/2/2 140/2/2 141/2/2
f 141/2/2 140/2/2 142/2/2
f 143/1/2 144/1/2 146/1/2
f 145/1/2 146/1/2 147/1/2
f 146/1/2 144/1/2 148/1/2
f 147/1/2 146/1/2 148/1/2
f 149/2/2 150/2/2 153/2/2
f 151/2/2 152/2/2 155/2/2
f 155/2/2 152/2/2 156/2/2
f 151/2/2 155/2/2 157/2/2
f 157/2/2 155/2/2 158/2/2
f 153/2/2 154/2/2 159/2/2
f 149/2/2 153/2/2 159/2/2
f 159/2/2 154/2/2 160/2/2
f 160/2/2 154/2/2 161/2/2
f 160/2/2 161/2/2 164/2/2
f 161/2/2 162/2/2 164/2/2
f 163/1/2 164/1/2 165/1/2
f 164/2/2 162/2/2 166/2/2
f 165/1/2 164/1/2 166/1/2
f 166/2/2 162/2/2 167/2/2
f 168/1/2 169/1/2 170/1/2
f 170/1/2 169/1/2 171/1/2
f 172/1/2 173/1/2 174/1/2
f 172/1/2 174/1/2 176/1/2
f 174/1/2 175/1/2 176/1/2
f 176/1/2 175/1/2 177/1/2
f 178/1/2 179/1/2 180/1/2
f 180/1/2 179/1/2 181/1/2
f 182/2/2 183/2/2 184/2/2
f 184/2/2 183/2/2 185/2/2
f 182/2/2 184/2/2 186/2/2
f 186/2/2 184/2/2 187/2/2
f 185/2/2 183/2/2 188/2/2
f 188/2/2 183/2/2 189/2/2
f 190/1/2 191/1/2 192/1/2
f 192/1/2 191/1/2 193/1/2
f 194/2/2 195/2/2 198/2/2
f 196/2/2 197/2/2 199/2/2
f 194/2/2 198/2/2 200/2/2
f 198/2/2 199/2/2 200/2/2
f 199/2/2 197/2/2 201/2/2
f 200/2/2 199/2/2 201/2/2
f 202/2/2 203/2/2 206/2/2
f 204/2/2 205/2/2 207/2/2
f 202/2/2 206/2/2 208/2/2
f 206/2/2 207/2/2 208/2/2
f 208/2/2 207/2/2 209/2/2
f 209/2/2 207/2/2 210/2/2
f 207/2/2 205/2/2 211/2/2
f 210/2/2 207/2/2 211/2/2
f 209/1/2 210/1/2 212/1/2
f 212/1/2 210/1/2 213/1/2
f 214/2/2 215/2/2 216/2/2
f 216/2/2 215/2/2 217/2/2
f 217/2/2 215/2/2 218/2/2
f 218/2/2 215/2/2 219/2/2
f 217/1/2 218/1/2 220/1/2
f 220/1/2 218/1/2 221/1/2
f 224/1/3 223/1/3 222/1/3
f 225/1/3 223/1/3 224/1/3
f 228/2/3 227/2/3 226/2/3
f 229/2/3 227/2/3 228/2/3
f 230/2/3 228/2/3 226/2/3
f 232/2/3 230/2/3 226/2/3
f 232/2/3 231/2/3 230/2/3
f 233/2/3 231/2/3 232/2/3
f 236/1/3 235/1/3 234/1/3
f 237/1/3 235/1/3 236/1/3
f 240/2/3 239/2/3 238/2/3
f 241/2/3 239/2/3 240/2/3
f 244/2/3 243/2/3 242/2/3
f 245/2/3 243/2/3 244/2/3
f 247/2/3 243/2/3 245/2/3
f 248/2/3 247/2/3 246/2/3
f 249/2/3 243/2/3 247/2/3
f 249/2/3 247/2/3 248/2/3
f 252/1/3 251/1/3 250/1/3
f 253/1/3 251/1/3 252/1/3
f 257/2/3 255/2/3 254/2/3
f 257/2/3 256/2/3 255/2/3
f 258/2/3 256/2/3 257/2/3
f 260/2/3 256/2/3 258/2/3
f 261/2/3 260/2/3 259/2/3
f 262/2/3 256/2/3 260/2/3
f 262/2/3 260/2/3 261/2/3
f 265/1/3 264/1/3 263/1/3
f 266/1/3 264/1/3 265/1/3
f 269/2/3 268/2/3 267/2/3
f 270/2/3 268/2/3 269/2/3
f 272/2/3 268/2/3 270/2/3
f 273/2/3 272/2/3 271/2/3
f 274/2/3 268/2/3 272/2/3
f 274/2/3 272/2/3 273/2/3
f 277/1/3 276/1/3 275/1/3
f 278/1/3 276/1/3 277/1/3
f 281/2/3 280/2/3 279/2/3
f 282/2/3 280/2/3 281/2/3
f 284/2/3 280/2/3 282/2/3
f 287/2/3 284/2/3 283/2/3
f 288/2/3 280/2/3 284/2/3
f 288/2/3 284/2/3 287/2/3
f 289/1/3 286/1/3 285/1/3
f 290/1/3 286/1/3 289/1/3
f 293/2/3 292/2/3 291/2/3
f 294/2/3 292/2/3 293/2/3
f 295/2/3 293/2/3 291/2/3
f 296/2/3 293/2/3 295/2/3
f 299/1/3 298/1/3 297/1/3
f 300/1/3 298/1/3 299/1/3
f 303/1/3 302/1/3 301/1/3
f 304/1/3 302/1/3 303/1/3
f 307/1/3 306/1/3 305/1/3
f 308/1/3 306/1/3 307/1/3
f 309/1/3 306/1/3 308/1/3
f 310/1/3 306/1/3 309/1/3
f 313/1/3 312/1/3 311/1/3
f 314/1/3 312/1/3 313/1/3
f 317/1/3 316/1/3 315/1/3
f 318/1/3 316/1/3 317/1/3
f 321/1/3 320/1/3 319/1/3
f 322/1/3 320/1/3 321/1/3
f 326/1/3 324/1/3 323/1/3
f 327/1/3 326/1/3 325/1/3
f 328/1/3 324/1/3 326/1/3
f 328/1/3 326/1/3 327/1/3
f 331/1/3 330/1/3 329/1/3
f 332/1/3 330/1/3 331/1/3
f 333/1/3 330/1/3 332/1/3
f 334/1/3 330/1/3 333/1/3
f 337/1/3 336/1/3 335/1/3
f 338/1/3 336/1/3 337/1/3
f 339/1/4 340/1/4 341/1/4
f 341/1/4 340/1/4 342/1/4
f 343/1/4 344/1/4 345/1/4
f 345/1/4 344/1/4 346/1/4
f 347/1/4 348/1/4 349/1/4
f 349/1/4 348/1/4 350/1/4
f 351/1/4 352/1/4 353/1/4
f 353/1/4 352/1/4 354/1/4
f 355/1/4 356/1/4 357/1/4
f 357/1/4 356/1/4 358/1/4
f 358/1/4 356/1/4 359/1/4
f 359/1/4 356/1/4 360/1/4
f 361/1/4 362/1/4 363/1/4
f 363/1/4 362/1/4 364/1/4
f 364/1/4 362/1/4 365/1/4
f 365/1/4 362/1/4 366/1/4
f 367/2/4 368/2/4 370/2/4
f 369/2/4 370/2/4 372/2/4
f 370/2/4 368/2/4 373/2/4
f 372/2/4 370/2/4 373/2/4
f 373/2/4 368/2/4 374/2/4
f 371/1/4 372/1/4 375/1/4
f 372/1/4 373/1/4 375/1/4
f 375/1/4 373/1/4 376/1/4
f 371/1/4 375/1/4 378/1/4
f 377/1/4 378/1/4 379/1/4
f 378/1/4 375/1/4 380/1/4
f 379/1/4 378/1/4 380/1/4
f 381/2/4 382/2/4 383/2/4
f 383/2/4 382/2/4 384/2/4
f 381/2/4 383/2/4 385/2/4
f 385/2/4 383/2/4 386/2/4
f 387/1/4 388/1/4 389/1/4
f 389/1/4 388/1/4 390/1/4
f 391/2/4 392/2/4 393/2/4
f 391/2/4 393/2/4 395/2/4
f 393/2/4 394/2/4 395/2/4
f 395/2/4 394/2/4 396/2/4
f 396/2/4 394/2/4 398/2/4
f 398/2/4 394/2/4 399/2/4
f 397/2/4 398/2/4 399/2/4
f 399/2/4 394/2/4 400/2/4
f 397/2/4 399/2/4 401/2/4
f 401/2/4 399/2/4 402/2/4
f 403/2/4 404/2/4 405/2/4
f 405/2/4 404/2/4 406/2/4
f 406/2/4 404/2/4 407/2/4
f 406/2/4 407/2/4 409/2/4
f 407/1/4 408/1/4 409/1/4
f 409/1/4 408/1/4 410/1/4
f 406/2/4 409/2/4 412/2/4
f 411/2/4 412/2/4 413/2/4
f 412/2/4 409/2/4 414/2/4
f 413/2/4 412/2/4 414/2/4
f 415/1/4 416/1/4 417/1/4
f 417/1/4 416/1/4 418/1/4
f 419/2/4 420/2/4 421/2/4
f 419/2/4 421/2/4 423/2/4
f 421/2/4 422/2/4 423/2/4
f 423/2/4 422/2/4 424/2/4
f 424/2/4 422/2/4 425/2/4
f 425/2/4 422/2/4 426/2/4
f 424/2/4 425/2/4 428/2/4
f 428/2/4 425/2/4 429/2/4
f 427/2/4 428/2/4 429/2/4
f 427/2/4 429/2/4 431/2/4
f 429/2/4 430/2/4 431/2/4
f 431/2/4 430/2/4 432/2/4
f 427/2/4 431/2/4 433/2/4
f 433/2/4 431/2/4 434/2/4
f 435/1/4 436/1/4 439/1/4
f 439/1/4 436/1/4 440/1/4
f 437/1/4 438/1/4 441/1/4
f 441/1/4 438/1/4 442/1/4
f 445/2/5 444/2/5 443/2/5
f 446/2/5 444/2/5 445/2/5
f 447/2/5 444/2/5 446/2/5
f 448/2/5 444/2/5 447/2/5
f 449/1/5 447/1/5 446/1/5
f 450/1/5 447/1/5 449/1/5
f 453/1/5 452/1/5 451/1/5
f 454/1/5 452/1/5 453/1/5
f 457/1/5 456/1/5 455/1/5
f 458/1/5 456/1/5 457/1/5
f 461/1/5 460/1/5 459/1/5
f 462/1/5 460/1/5 461/1/5
f 465/1/5 464/1/5 463/1/5
f 466/1/5 464/1/5 465/1/5
f 469/1/5 468/1/5 467/1/5
f 470/1/5 468/1/5 469/1/5
f 473/1/5 472/1/5 471/1/5
f 474/1/5 472/1/5 473/1/5
f 477/1/5 476/1/5 475/1/5
f 478/1/5 476/1/5 477/1/5
f 479/1/6 480/1/6 481/1/6
f 481/1/6 480/1/6 482/1/6
f 483/2/6 484/2/6 487/2/6
f 487/2/6 484/2/6 488/2/6
f 483/2/6 487/2/6 489/2/6
f 489/2/6 487/2/6 490/2/6
f 488/2/6 484/2/6 491/2/6
f 491/2/6 484/2/6 492/2/6
f 485/2/6 486/2/6 493/2/6
f 493/2/6 486/2/6 494/2/6
f 494/2/6 486/2/6 495/2/6
f 495/2/6 486/2/6 496/2/6
f 483/2/6 489/2/6 497/2/6
f 497/2/6 489/2/6 498/2/6
f 483/2/6 497/2/6 499/2/6
f 499/2/6 500/2/6 503/2/6
f 483/2/6 499/2/6 503/2/6
f 503/2/6 500/2/6 504/2/6
f 501/2/6 502/2/6 505/2/6
f 505/2/6 502/2/6 506/2/6
f 507/1/6 508/1/6 509/1/6
f 509/1/6 508/1/6 510/1/6
f 511/1/6 512/1/6 513/1/6
f 513/1/6 512/1/6 514/1/6
f 515/1/6 516/1/6 517/1/6
f 517/1/6 516/1/6 518/1/6
f 521/2/6 522/2/6 523/2/6
f 523/2/6 522/2/6 524/2/6
f 519/2/6 520/2/6 525/2/6
f 521/2/6 523/2/6 526/2/6
f 526/2/6 523/2/6 527/2/6
f 524/2/6 522/2/6 528/2/6
f 528/2/6 522/2/6 529/2/6
f 529/2/6 522/2/6 530/2/6
f 530/2/6 522/2/6 531/2/6
f 519/2/6 525/2/6 533/2/6
f 525/2/6 526/2/6 533/2/6
f 532/1/6 533/1/6 534/1/6
f 533/2/6 526/2/6 535/2/6
f 534/1/6 533/1/6 535/1/6
f 535/2/6 526/2/6 536/2/6
f 539/2/6 540/2/6 541/2/6
f 537/2/6 538/2/6 544/2/6
f 541/2/6 542/2/6 545/2/6
f 539/2/6 541/2/6 545/2/6
f 545/2/6 542/2/6 546/2/6
f 543/2/6 544/2/6 547/2/6
f 544/2/6 538/2/6 548/2/6
f 547/2/6 544/2/6 548/2/6
f 549/1/6 550/1/6 551/1/6
f 551/1/6 550/1/6 552/1/6
f 553/1/6 554/1/6 555/1/6
f 555/1/6 554/1/6 556/1/6
f 557/1/6 558/1/6 559/1/6
f 559/1/6 558/1/6 560/1/6
f 561/1/6 562/1/6 563/1/6
f 563/1/6 562/1/6 564/1/6
f 565/1/6 566/1/6 567/1/6
f 567/1/6 566/1/6 568/1/6
f 569/2/6 570/2/6 571/2/6
f 571/2/6 570/2/6 572/2/6
f 569/2/6 571/2/6 573/2/6
f 573/2/6 571/2/6 574/2/6
f 572/2/6 570/2/6 575/2/6
f 575/2/6 570/2/6 576/2/6
f 569/2/6 573/2/6 577/2/6
f 577/2/6 573/2/6 578/2/6
f 579/2/6 580/2/6 581/2/6
f 576/2/6 570/2/6 584/2/6
f 581/2/6 582/2/6 585/2/6
f 579/2/6 581/2/6 585/2/6
f 585/2/6 582/2/6 586/2/6
f 583/2/6 584/2/6 587/2/6
f 584/2/6 570/2/6 588/2/6
f 587/2/6 584/2/6 588/2/6
f 589/1/6 590/1/6 591/1/6
f 591/1/6 590/1/6 592/1/6
f 593/1/6 594/1/6 595/1/6
f 595/1/6 594/1/6 596/1/6
f 597/1/6 598/1/6 599/1/6
f 599/1/6 598/1/6 600/1/6
f 601/2/6 602/2/6 603/2/6
f 603/2/6 602/2/6 604/2/6
f 601/2/6 603/2/6 605/2/6
f 605/2/6 603/2/6 606/2/6
f 604/2/6 602/2/6 607/2/6
f 607/2/6 602/2/6 608/2/6
f 608/2/6 602/2/6 609/2/6
f 609/2/6 602/2/6 610/2/6
f 601/2/6 605/2/6 613/2/6
f 613/2/6 605/2/6 614/2/6
f 611/2/6 612/2/6 615/2/6
f 615/2/6 612/2/6 616/2/6
f 617/1/6 618/1/6 619/1/6
f 619/1/6 618/1/6 620/1/6
f 621/1/6 622/1/6 623/1/6
f 623/1/6 622/1/6 624/1/6
f 624/1/6 622/1/6 625/1/6
f 625/1/6 622/1/6 626/1/6
f 627/2/6 628/2/6 629/2/6
f 629/2/6 628/2/6 630/2/6
f 631/2/6 632/2/6 633/2/6
f 633/2/6 632/2/6 634/2/6
f 635/2/6 636/2/6 637/2/6
f 637/2/6 636/2/6 638/2/6
f 635/2/6 637/2/6 639/2/6
f 639/2/6 637/2/6 640/2/6
f 641/2/6 642/2/6 643/2/6
f 641/2/6 643/2/6 645/2/6
f 643/2/6 644/2/6 645/2/6
f 645/2/6 644/2/6 646/2/6
f 647/1/6 648/1/6 649/1/6
f 649/1/6 648/1/6 650/1/6
f 651/1/6 652/1/6 653/1/6
f 653/1/6 652/1/6 654/1/6
f 655/1/6 656/1/6 658/1/6
f 658/1/6 656/1/6 659/1/6
f 657/2/6 658/2/6 660/2/6
f 658/2/6 659/2/6 660/2/6
f 660/2/6 659/2/6 661/2/6
