# MagicaVoxel @ Ephtracy

# group
g 자물쇠

# material
mtllib 자물쇠.mtl
usemtl palette

# normals
vn -1 0 0
vn 1 0 0
vn 0 0 1
vn 0 0 -1
vn 0 -1 0
vn 0 1 0

# texcoords
vt 0.751953 0.5
vt 0.958984 0.5
vt 0.974609 0.5

# verts
v -12 2 5
v -12 2 -5
v -12 20 5
v -12 20 -5
v -10 0 5
v -10 0 -5
v -10 2 5
v -10 2 -5
v -10 20 5
v -10 20 -5
v -10 22 5
v -10 22 -5
v -9 22 2
v -9 22 -2
v -9 23 2
v -9 23 -2
v -8 23 2
v -8 23 -2
v -8 27 2
v -8 27 -2
v -7 27 2
v -7 27 -2
v -7 31 2
v -7 31 -2
v -6 31 2
v -6 31 -2
v -6 34 2
v -6 34 -2
v -4 34 2
v -4 34 -2
v -4 36 2
v -4 36 -2
v -1 13 5
v -1 13 4
v -1 17 5
v -1 17 4
v 3 13 5
v 3 13 4
v 3 17 5
v 3 17 4
v 3 31 2
v 3 31 -2
v 3 34 2
v 3 34 -2
v 4 7 5
v 4 7 4
v 4 13 5
v 4 13 4
v 4 26 2
v 4 26 -2
v 4 31 2
v 4 31 -2
v 5 23 2
v 5 23 -2
v 5 26 2
v 5 26 -2
v 6 22 2
v 6 22 -2
v 6 23 2
v 6 23 -2
v -6 22 2
v -6 22 -2
v -6 23 2
v -6 23 -2
v -5 23 2
v -5 23 -2
v -5 27 2
v -5 27 -2
v -4 7 5
v -4 7 4
v -4 13 5
v -4 13 4
v -4 27 2
v -4 27 -2
v -4 31 2
v -4 31 -2
v -3 13 5
v -3 13 4
v -3 17 5
v -3 17 4
v -3 31 2
v -3 31 -2
v -3 34 2
v -3 34 -2
v 1 13 5
v 1 13 4
v 1 17 5
v 1 17 4
v 4 34 2
v 4 34 -2
v 4 36 2
v 4 36 -2
v 6 31 2
v 6 31 -2
v 6 34 2
v 6 34 -2
v 7 27 2
v 7 27 -2
v 7 31 2
v 7 31 -2
v 8 23 2
v 8 23 -2
v 8 27 2
v 8 27 -2
v 9 22 2
v 9 22 -2
v 9 23 2
v 9 23 -2
v 10 0 5
v 10 0 -5
v 10 2 5
v 10 2 -5
v 10 20 5
v 10 20 -5
v 10 22 5
v 10 22 -5
v 12 2 5
v 12 2 -5
v 12 20 5
v 12 20 -5
v -12 2 5
v -12 20 5
v -10 0 5
v -10 2 5
v -10 20 5
v -10 22 5
v -4 7 5
v -4 13 5
v -3 13 5
v -3 17 5
v -1 13 5
v -1 17 5
v 1 13 5
v 1 17 5
v 3 13 5
v 3 17 5
v 4 7 5
v 4 13 5
v 10 0 5
v 10 2 5
v 10 20 5
v 10 22 5
v 12 2 5
v 12 20 5
v -4 7 4
v -4 13 4
v -3 13 4
v -3 17 4
v -1 13 4
v -1 17 4
v 1 13 4
v 1 17 4
v 3 13 4
v 3 17 4
v 4 7 4
v 4 13 4
v -9 22 2
v -9 23 2
v -8 23 2
v -8 27 2
v -7 27 2
v -7 31 2
v -6 22 2
v -6 23 2
v -6 31 2
v -6 34 2
v -5 23 2
v -5 27 2
v -4 27 2
v -4 31 2
v -4 34 2
v -4 36 2
v -3 31 2
v -3 34 2
v 3 31 2
v 3 34 2
v 4 26 2
v 4 31 2
v 4 34 2
v 4 36 2
v 5 23 2
v 5 26 2
v 6 22 2
v 6 23 2
v 6 31 2
v 6 34 2
v 7 27 2
v 7 31 2
v 8 23 2
v 8 27 2
v 9 22 2
v 9 23 2
v -9 22 -2
v -9 23 -2
v -8 23 -2
v -8 27 -2
v -7 27 -2
v -7 31 -2
v -6 22 -2
v -6 23 -2
v -6 31 -2
v -6 34 -2
v -5 23 -2
v -5 27 -2
v -4 27 -2
v -4 31 -2
v -4 34 -2
v -4 36 -2
v -3 31 -2
v -3 34 -2
v 3 31 -2
v 3 34 -2
v 4 26 -2
v 4 31 -2
v 4 34 -2
v 4 36 -2
v 5 23 -2
v 5 26 -2
v 6 22 -2
v 6 23 -2
v 6 31 -2
v 6 34 -2
v 7 27 -2
v 7 31 -2
v 8 23 -2
v 8 27 -2
v 9 22 -2
v 9 23 -2
v -12 2 -5
v -12 20 -5
v -10 0 -5
v -10 2 -5
v -10 20 -5
v -10 22 -5
v 10 0 -5
v 10 2 -5
v 10 20 -5
v 10 22 -5
v 12 2 -5
v 12 20 -5
v -10 0 5
v 10 0 5
v -10 0 -5
v 10 0 -5
v -12 2 5
v -10 2 5
v 10 2 5
v 12 2 5
v -12 2 -5
v -10 2 -5
v 10 2 -5
v 12 2 -5
v -4 13 5
v -3 13 5
v -1 13 5
v 1 13 5
v 3 13 5
v 4 13 5
v -4 13 4
v -3 13 4
v -1 13 4
v 1 13 4
v 3 13 4
v 4 13 4
v -3 17 5
v -1 17 5
v 1 17 5
v 3 17 5
v -3 17 4
v -1 17 4
v 1 17 4
v 3 17 4
v -6 23 2
v -5 23 2
v 5 23 2
v 6 23 2
v -6 23 -2
v -5 23 -2
v 5 23 -2
v 6 23 -2
v 4 26 2
v 5 26 2
v 4 26 -2
v 5 26 -2
v -5 27 2
v -4 27 2
v -5 27 -2
v -4 27 -2
v -4 31 2
v -3 31 2
v 3 31 2
v 4 31 2
v -4 31 -2
v -3 31 -2
v 3 31 -2
v 4 31 -2
v -3 34 2
v 3 34 2
v -3 34 -2
v 3 34 -2
v -4 7 5
v 4 7 5
v -4 7 4
v 4 7 4
v -12 20 5
v -10 20 5
v 10 20 5
v 12 20 5
v -12 20 -5
v -10 20 -5
v 10 20 -5
v 12 20 -5
v -10 22 5
v 10 22 5
v -9 22 2
v -6 22 2
v 6 22 2
v 9 22 2
v -9 22 -2
v -6 22 -2
v 6 22 -2
v 9 22 -2
v -10 22 -5
v 10 22 -5
v -9 23 2
v -8 23 2
v 8 23 2
v 9 23 2
v -9 23 -2
v -8 23 -2
v 8 23 -2
v 9 23 -2
v -8 27 2
v -7 27 2
v 7 27 2
v 8 27 2
v -8 27 -2
v -7 27 -2
v 7 27 -2
v 8 27 -2
v -7 31 2
v -6 31 2
v 6 31 2
v 7 31 2
v -7 31 -2
v -6 31 -2
v 6 31 -2
v 7 31 -2
v -6 34 2
v -4 34 2
v 4 34 2
v 6 34 2
v -6 34 -2
v -4 34 -2
v 4 34 -2
v 6 34 -2
v -4 36 2
v 4 36 2
v -4 36 -2
v 4 36 -2

# faces
f 3/1/1 2/1/1 1/1/1
f 4/1/1 2/1/1 3/1/1
f 7/1/1 6/1/1 5/1/1
f 8/1/1 6/1/1 7/1/1
f 11/1/1 10/1/1 9/1/1
f 12/1/1 10/1/1 11/1/1
f 15/3/1 14/3/1 13/3/1
f 16/3/1 14/3/1 15/3/1
f 19/3/1 18/3/1 17/3/1
f 20/3/1 18/3/1 19/3/1
f 23/3/1 22/3/1 21/3/1
f 24/3/1 22/3/1 23/3/1
f 27/3/1 26/3/1 25/3/1
f 28/3/1 26/3/1 27/3/1
f 31/3/1 30/3/1 29/3/1
f 32/3/1 30/3/1 31/3/1
f 35/1/1 34/1/1 33/1/1
f 36/1/1 34/1/1 35/1/1
f 39/1/1 38/1/1 37/1/1
f 40/1/1 38/1/1 39/1/1
f 43/3/1 42/3/1 41/3/1
f 44/3/1 42/3/1 43/3/1
f 47/1/1 46/1/1 45/1/1
f 48/1/1 46/1/1 47/1/1
f 51/3/1 50/3/1 49/3/1
f 52/3/1 50/3/1 51/3/1
f 55/3/1 54/3/1 53/3/1
f 56/3/1 54/3/1 55/3/1
f 59/3/1 58/3/1 57/3/1
f 60/3/1 58/3/1 59/3/1
f 61/3/2 62/3/2 63/3/2
f 63/3/2 62/3/2 64/3/2
f 65/3/2 66/3/2 67/3/2
f 67/3/2 66/3/2 68/3/2
f 69/1/2 70/1/2 71/1/2
f 71/1/2 70/1/2 72/1/2
f 73/3/2 74/3/2 75/3/2
f 75/3/2 74/3/2 76/3/2
f 77/1/2 78/1/2 79/1/2
f 79/1/2 78/1/2 80/1/2
f 81/3/2 82/3/2 83/3/2
f 83/3/2 82/3/2 84/3/2
f 85/1/2 86/1/2 87/1/2
f 87/1/2 86/1/2 88/1/2
f 89/3/2 90/3/2 91/3/2
f 91/3/2 90/3/2 92/3/2
f 93/3/2 94/3/2 95/3/2
f 95/3/2 94/3/2 96/3/2
f 97/3/2 98/3/2 99/3/2
f 99/3/2 98/3/2 100/3/2
f 101/3/2 102/3/2 103/3/2
f 103/3/2 102/3/2 104/3/2
f 105/3/2 106/3/2 107/3/2
f 107/3/2 106/3/2 108/3/2
f 109/1/2 110/1/2 111/1/2
f 111/1/2 110/1/2 112/1/2
f 113/1/2 114/1/2 115/1/2
f 115/1/2 114/1/2 116/1/2
f 117/1/2 118/1/2 119/1/2
f 119/1/2 118/1/2 120/1/2
f 124/1/3 122/1/3 121/1/3
f 125/1/3 122/1/3 124/1/3
f 127/1/3 124/1/3 123/1/3
f 127/1/3 126/1/3 125/1/3
f 127/1/3 125/1/3 124/1/3
f 128/1/3 126/1/3 127/1/3
f 129/1/3 126/1/3 128/1/3
f 130/1/3 126/1/3 129/1/3
f 132/1/3 126/1/3 130/1/3
f 133/1/3 132/1/3 131/1/3
f 134/1/3 126/1/3 132/1/3
f 134/1/3 132/1/3 133/1/3
f 136/1/3 126/1/3 134/1/3
f 137/1/3 127/1/3 123/1/3
f 138/1/3 136/1/3 135/1/3
f 139/1/3 137/1/3 123/1/3
f 139/1/3 138/1/3 137/1/3
f 140/1/3 138/1/3 139/1/3
f 141/1/3 136/1/3 138/1/3
f 141/1/3 138/1/3 140/1/3
f 141/1/3 126/1/3 136/1/3
f 142/1/3 126/1/3 141/1/3
f 143/1/3 141/1/3 140/1/3
f 144/1/3 141/1/3 143/1/3
f 147/2/3 146/2/3 145/2/3
f 149/2/3 147/2/3 145/2/3
f 149/2/3 148/2/3 147/2/3
f 150/2/3 148/2/3 149/2/3
f 151/2/3 149/2/3 145/2/3
f 153/2/3 151/2/3 145/2/3
f 153/2/3 152/2/3 151/2/3
f 154/2/3 152/2/3 153/2/3
f 155/2/3 153/2/3 145/2/3
f 156/2/3 153/2/3 155/2/3
f 159/3/3 158/3/3 157/3/3
f 161/3/3 160/3/3 159/3/3
f 163/3/3 159/3/3 157/3/3
f 163/3/3 162/3/3 161/3/3
f 163/3/3 161/3/3 159/3/3
f 164/3/3 162/3/3 163/3/3
f 165/3/3 162/3/3 164/3/3
f 167/3/3 166/3/3 165/3/3
f 167/3/3 165/3/3 164/3/3
f 168/3/3 166/3/3 167/3/3
f 169/3/3 166/3/3 168/3/3
f 170/3/3 166/3/3 169/3/3
f 171/3/3 166/3/3 170/3/3
f 173/3/3 172/3/3 171/3/3
f 173/3/3 171/3/3 170/3/3
f 174/3/3 172/3/3 173/3/3
f 176/3/3 172/3/3 174/3/3
f 178/3/3 176/3/3 175/3/3
f 179/3/3 172/3/3 176/3/3
f 179/3/3 176/3/3 178/3/3
f 180/3/3 172/3/3 179/3/3
f 182/3/3 178/3/3 177/3/3
f 182/3/3 179/3/3 178/3/3
f 184/3/3 182/3/3 181/3/3
f 185/3/3 179/3/3 182/3/3
f 185/3/3 182/3/3 184/3/3
f 186/3/3 179/3/3 185/3/3
f 187/3/3 184/3/3 183/3/3
f 187/3/3 185/3/3 184/3/3
f 188/3/3 185/3/3 187/3/3
f 189/3/3 187/3/3 183/3/3
f 190/3/3 187/3/3 189/3/3
f 191/3/3 189/3/3 183/3/3
f 192/3/3 189/3/3 191/3/3
f 193/3/4 194/3/4 195/3/4
f 195/3/4 196/3/4 197/3/4
f 193/3/4 195/3/4 199/3/4
f 197/3/4 198/3/4 199/3/4
f 195/3/4 197/3/4 199/3/4
f 199/3/4 198/3/4 200/3/4
f 200/3/4 198/3/4 201/3/4
f 201/3/4 202/3/4 203/3/4
f 200/3/4 201/3/4 203/3/4
f 203/3/4 202/3/4 204/3/4
f 204/3/4 202/3/4 205/3/4
f 205/3/4 202/3/4 206/3/4
f 206/3/4 202/3/4 207/3/4
f 207/3/4 208/3/4 209/3/4
f 206/3/4 207/3/4 209/3/4
f 209/3/4 208/3/4 210/3/4
f 210/3/4 208/3/4 212/3/4
f 211/3/4 212/3/4 214/3/4
f 212/3/4 208/3/4 215/3/4
f 214/3/4 212/3/4 215/3/4
f 215/3/4 208/3/4 216/3/4
f 213/3/4 214/3/4 218/3/4
f 214/3/4 215/3/4 218/3/4
f 217/3/4 218/3/4 220/3/4
f 218/3/4 215/3/4 221/3/4
f 220/3/4 218/3/4 221/3/4
f 221/3/4 215/3/4 222/3/4
f 219/3/4 220/3/4 223/3/4
f 220/3/4 221/3/4 223/3/4
f 223/3/4 221/3/4 224/3/4
f 219/3/4 223/3/4 225/3/4
f 225/3/4 223/3/4 226/3/4
f 219/3/4 225/3/4 227/3/4
f 227/3/4 225/3/4 228/3/4
f 229/1/4 230/1/4 232/1/4
f 232/1/4 230/1/4 233/1/4
f 231/1/4 232/1/4 235/1/4
f 233/1/4 234/1/4 235/1/4
f 232/1/4 233/1/4 235/1/4
f 235/1/4 234/1/4 236/1/4
f 236/1/4 234/1/4 237/1/4
f 237/1/4 234/1/4 238/1/4
f 236/1/4 237/1/4 239/1/4
f 239/1/4 237/1/4 240/1/4
f 243/1/5 242/1/5 241/1/5
f 244/1/5 242/1/5 243/1/5
f 249/1/5 246/1/5 245/1/5
f 250/1/5 246/1/5 249/1/5
f 251/1/5 248/1/5 247/1/5
f 252/1/5 248/1/5 251/1/5
f 259/1/5 254/1/5 253/1/5
f 260/1/5 254/1/5 259/1/5
f 261/1/5 256/1/5 255/1/5
f 262/1/5 256/1/5 261/1/5
f 263/1/5 258/1/5 257/1/5
f 264/1/5 258/1/5 263/1/5
f 269/1/5 266/1/5 265/1/5
f 270/1/5 266/1/5 269/1/5
f 271/1/5 268/1/5 267/1/5
f 272/1/5 268/1/5 271/1/5
f 277/3/5 274/3/5 273/3/5
f 278/3/5 274/3/5 277/3/5
f 279/3/5 276/3/5 275/3/5
f 280/3/5 276/3/5 279/3/5
f 283/3/5 282/3/5 281/3/5
f 284/3/5 282/3/5 283/3/5
f 287/3/5 286/3/5 285/3/5
f 288/3/5 286/3/5 287/3/5
f 293/3/5 290/3/5 289/3/5
f 294/3/5 290/3/5 293/3/5
f 295/3/5 292/3/5 291/3/5
f 296/3/5 292/3/5 295/3/5
f 299/3/5 298/3/5 297/3/5
f 300/3/5 298/3/5 299/3/5
f 301/1/6 302/1/6 303/1/6
f 303/1/6 302/1/6 304/1/6
f 305/1/6 306/1/6 309/1/6
f 309/1/6 306/1/6 310/1/6
f 307/1/6 308/1/6 311/1/6
f 311/1/6 308/1/6 312/1/6
f 313/1/6 314/1/6 315/1/6
f 315/1/6 314/1/6 316/1/6
f 316/1/6 314/1/6 317/1/6
f 317/1/6 314/1/6 318/1/6
f 313/1/6 315/1/6 319/1/6
f 316/1/6 317/1/6 320/1/6
f 320/1/6 317/1/6 321/1/6
f 318/1/6 314/1/6 322/1/6
f 320/1/6 321/1/6 323/1/6
f 321/1/6 322/1/6 323/1/6
f 313/1/6 319/1/6 323/1/6
f 319/1/6 320/1/6 323/1/6
f 322/1/6 314/1/6 324/1/6
f 323/1/6 322/1/6 324/1/6
f 325/3/6 326/3/6 329/3/6
f 329/3/6 326/3/6 330/3/6
f 327/3/6 328/3/6 331/3/6
f 331/3/6 328/3/6 332/3/6
f 333/3/6 334/3/6 337/3/6
f 337/3/6 334/3/6 338/3/6
f 335/3/6 336/3/6 339/3/6
f 339/3/6 336/3/6 340/3/6
f 341/3/6 342/3/6 345/3/6
f 345/3/6 342/3/6 346/3/6
f 343/3/6 344/3/6 347/3/6
f 347/3/6 344/3/6 348/3/6
f 349/3/6 350/3/6 353/3/6
f 353/3/6 350/3/6 354/3/6
f 351/3/6 352/3/6 355/3/6
f 355/3/6 352/3/6 356/3/6
f 357/3/6 358/3/6 359/3/6
f 359/3/6 358/3/6 360/3/6
